<?xml version="1.0" standalone="no"?><!DOCTYPE svg PUBLIC "-//W3C//DTD SVG 1.1//EN" "http://www.w3.org/Graphics/SVG/1.1/DTD/svg11.dtd"><svg class="icon" width="200px" height="200.00px" viewBox="0 0 1024 1024" version="1.1" xmlns="http://www.w3.org/2000/svg"><path fill="#f99000" d="M361.443 804.68c36.843 0 66.71 29.844 66.71 66.66 0 36.815-29.867 66.66-66.71 66.66-36.843 0-66.71-29.845-66.71-66.66 0-36.816 29.867-66.66 66.71-66.66z m420.962 0c36.843 0 66.71 29.844 66.71 66.66 0 36.815-29.867 66.66-66.71 66.66-36.843 0-66.71-29.845-66.71-66.66 0-36.816 29.867-66.66 66.71-66.66zM186.732 99c13.38 0 25.099 8.875 28.754 21.676l0.192 0.702 21.044 81.06h677.773c19.057 0 34.505 15.437 34.505 34.48 0 3.03-0.4 6.047-1.189 8.972L854.63 591.377c-5.412 20.067-23.624 34.01-44.422 34.01l-483.269-0.001-34.374 85.05H879.02c16.28 0 29.521 12.999 29.904 29.176v0.706c0 16.268-13.008 29.5-29.198 29.874l-0.706 0.008H248.24c-20.98 0-35.368-20.99-27.967-40.464l0.238-0.608 55.323-136.898-2.213-9.669-110.025-423.797H96.904c-16.28 0-29.52-12.999-29.904-29.176v-0.706c0-16.268 13.009-29.5 29.199-29.874l0.705-0.008h89.828z"  /></svg>