<?xml version="1.0" standalone="no"?><!DOCTYPE svg PUBLIC "-//W3C//DTD SVG 1.1//EN" "http://www.w3.org/Graphics/SVG/1.1/DTD/svg11.dtd"><svg class="icon" width="200px" height="200.00px" viewBox="0 0 1024 1024" version="1.1" xmlns="http://www.w3.org/2000/svg"><path fill="#f99000" d="M919.847 285.844c42.678 42.678 42.704 111.847 0.058 154.493s-111.815 42.62-154.494-0.058l-13.15-13.15-121.727 121.728 6.742 201.602c0.897 26.83-31.182 41.006-50.435 22.675l-0.58-0.565-173.368-173.368L213.47 798.625l-66.707 8.14 8.14-66.707 199.424-199.424L199.43 385.738c-18.511-18.51-5.988-50.026 19.909-51.008l0.789-0.02 193.052-2.666L539.612 214.48l-14.975-14.975c-42.252-42.252-42.7-110.467-1.325-153.206l1.267-1.288c42.646-42.646 111.815-42.62 154.493 0.058z"  /></svg>