<?xml version="1.0" standalone="no"?><!DOCTYPE svg PUBLIC "-//W3C//DTD SVG 1.1//EN" "http://www.w3.org/Graphics/SVG/1.1/DTD/svg11.dtd"><svg class="icon" width="200px" height="200.00px" viewBox="0 0 1024 1024" version="1.1" xmlns="http://www.w3.org/2000/svg"><path fill="#f99000" d="M780.96 87C863.273 87 930 153.727 930 236.04v463.214c0 81.515-66.081 147.597-147.597 147.597h-125.8a74.52 74.52 0 0 0-40.157 11.745L501.5 932.127a37.26 37.26 0 0 1-40.538-0.246L350.168 859.09a74.52 74.52 0 0 0-40.918-12.24H182.04C99.727 846.85 33 780.124 33 697.81V236.04C33 153.727 99.727 87 182.04 87h598.92zM276.823 413.597c-31.769 0-57.523 25.743-57.523 57.5 0 31.755 25.754 57.499 57.523 57.499 31.77 0 57.523-25.744 57.523-57.5s-25.754-57.5-57.523-57.5z m205.278 0c-31.77 0-57.524 25.743-57.524 57.5 0 31.755 25.754 57.499 57.524 57.499 31.769 0 57.523-25.744 57.523-57.5s-25.754-57.5-57.523-57.5z m204.033 0c-31.77 0-57.523 25.743-57.523 57.5 0 31.755 25.754 57.499 57.523 57.499 31.77 0 57.523-25.744 57.523-57.5s-25.754-57.5-57.523-57.5z"  /></svg>