<?xml version="1.0" standalone="no"?><!DOCTYPE svg PUBLIC "-//W3C//DTD SVG 1.1//EN" "http://www.w3.org/Graphics/SVG/1.1/DTD/svg11.dtd"><svg class="icon" width="200px" height="200.00px" viewBox="0 0 1024 1024" version="1.1" xmlns="http://www.w3.org/2000/svg"><path fill="#f99000" d="M690.57 131c82.312 0 149.04 66.727 149.04 149.04l0.006 257.758c-18.6-31.465-47.885-63.004-95.081-84.608-11.57 38.052-3.074 94.153-111.917 212.84-47.348 51.63-37.243 104.3-3.247 145.134l-32.088-0.005a74.52 74.52 0 0 0-40.168 11.753l-98.768 63.207a37.26 37.26 0 0 1-40.55-0.247l-95.04-62.466a74.52 74.52 0 0 0-40.93-12.247H170.563C96.798 811.16 37 751.362 37 677.597V280.04C37 197.727 103.727 131 186.04 131h504.53zM753 499.217c108.565 50.327 101.459 165.633 109.698 162.12 5.493-2.343 12.831-16.372 22.015-42.088 102.572 152.918-4.404 213.774-78.709 235.94-74.305 22.166-233.884-80.874-144.703-179.36 89.18-98.484 82.22-145.036 91.7-176.612z m-497.834-75.873c-28.426 0-51.47 23.044-51.47 51.47 0 28.425 23.044 51.468 51.47 51.468s51.47-23.043 51.47-51.469c0-28.425-23.044-51.469-51.47-51.469z m183.676 0c-28.426 0-51.47 23.044-51.47 51.47 0 28.425 23.044 51.468 51.47 51.468s51.47-23.043 51.47-51.469c0-28.425-23.044-51.469-51.47-51.469z m182.563 0c-28.426 0-51.47 23.044-51.47 51.47 0 28.425 23.044 51.468 51.47 51.468 28.427 0 51.47-23.043 51.47-51.469 0-28.425-23.043-51.469-51.47-51.469z"  /></svg>