<?xml version="1.0" standalone="no"?><!DOCTYPE svg PUBLIC "-//W3C//DTD SVG 1.1//EN" "http://www.w3.org/Graphics/SVG/1.1/DTD/svg11.dtd"><svg class="icon" width="200px" height="200.00px" viewBox="0 0 1024 1024" version="1.1" xmlns="http://www.w3.org/2000/svg"><path fill="#f99000" d="M359.705 546.991c44.475 0 80.53 36.032 80.53 80.48v200.05c0 44.447-36.055 80.479-80.53 80.479H159.53C115.055 908 79 871.968 79 827.52V627.47c0-44.447 36.055-80.479 80.53-80.479h200.175z m441.765 0c44.475 0 80.53 36.032 80.53 80.48v200.05C882 871.967 845.945 908 801.47 908H601.295c-44.475 0-80.53-36.032-80.53-80.48V627.47c0-44.447 36.055-80.479 80.53-80.479H801.47zM701.383 117C801.135 117 882 197.815 882 297.504c0 99.69-80.865 180.505-180.617 180.505-99.753 0-180.618-80.815-180.618-180.505S601.63 117 701.383 117z m-341.678 0c44.475 0 80.53 36.032 80.53 80.48v200.05c0 44.447-36.055 80.479-80.53 80.479H159.53c-44.475 0-80.53-36.032-80.53-80.48V197.48C79 153.033 115.055 117 159.53 117h200.175z"  /></svg>