<?xml version="1.0" standalone="no"?><!DOCTYPE svg PUBLIC "-//W3C//DTD SVG 1.1//EN" "http://www.w3.org/Graphics/SVG/1.1/DTD/svg11.dtd"><svg t="1596443976948" class="icon" viewBox="0 0 1024 1024" version="1.1" xmlns="http://www.w3.org/2000/svg" p-id="5125" xmlns:xlink="http://www.w3.org/1999/xlink" width="200" height="200"><defs><style type="text/css"></style></defs><path d="M960 512c0 6.9-0.2 13.7-0.5 20.5-0.2 4.1-0.4 8.3-0.7 12.4-0.1 1.3-0.2 2.6-0.3 3.8-1.2 14.5-3 28.7-5.5 42.7 0 0.1-0.1 0.3-0.1 0.4-1.1 6.2-2.4 12.4-3.8 18.6-1.4 6.3-3 12.5-4.6 18.7 0 0.2-0.1 0.4-0.1 0.6-3.2 12-7 23.8-11.2 35.3-1.3 3.5-2.6 7-3.9 10.4-0.7 1.9-1.5 3.7-2.2 5.6-2 4.8-4 9.5-6.1 14.2-1.8 4-3.6 7.9-5.5 11.8-8.6 17.8-18.4 35-29.3 51.4-0.2 0.3-0.4 0.7-0.7 1-2.1 3.2-4.3 6.5-6.6 9.6-3.9 5.5-7.8 10.9-11.9 16.2-4.5 5.9-9.2 11.6-14 17.2-38 44.7-84.4 81.6-136.7 108.4C655 942.3 585.6 960 512 960c-118.7 0-226.5-46.1-306.7-121.4-4.4-4.2-8.8-8.4-13-12.8-12.5-12.7-24.3-26.2-35.2-40.4-3.3-4.3-6.6-8.7-9.7-13.1-2.9-4.1-5.8-8.2-8.6-12.4-0.2-0.2-0.3-0.5-0.5-0.7-0.1-0.2-0.3-0.4-0.4-0.6-2.8-4.2-5.5-8.4-8.1-12.7-7.7-12.5-14.8-25.4-21.2-38.7-1.5-3.1-3-6.2-4.4-9.4-1.8-3.8-3.4-7.7-5.1-11.6-1.2-2.8-2.3-5.5-3.4-8.3-0.5-1.1-0.9-2.3-1.4-3.5s-0.9-2.4-1.4-3.6c-0.7-1.9-1.5-3.9-2.2-5.8-2.5-7-4.9-14-7.1-21.2-1.4-4.7-2.8-9.4-4.1-14.1-0.1-0.2-0.1-0.5-0.2-0.7-3.5-12.8-6.4-25.9-8.7-39.2-2.4-13.5-4.2-27.3-5.3-41.2-0.1-1.2-0.2-2.5-0.3-3.8-0.2-2.1-0.3-4.2-0.4-6.4-0.1-2-0.2-4.1-0.3-6.1-0.3-6.8-0.5-13.7-0.5-20.5 0-8.2 0.2-16.2 0.7-24.3 0.2-4 0.5-8 0.8-12 0-0.3 0-0.7 0.1-1 0.9-10.6 2.1-21.1 3.7-31.5 0.7-4.3 1.4-8.5 2.2-12.7 1-5.6 2.2-11.2 3.4-16.7C119.6 213.6 298.3 64 512 64c63.6 0 124.1 13.2 178.9 37.2 26.9 11.7 52.4 26 76.2 42.5 90.8 63 157.1 158.7 182.1 270.1 1.2 5.5 2.4 11.1 3.4 16.7 0.8 4.2 1.5 8.4 2.1 12.6 1.7 10.8 3 21.6 3.8 32.7 0.8 10.1 1.3 20.2 1.4 30.5 0.1 1.8 0.1 3.8 0.1 5.7z" fill="#FFBF0B" p-id="5126"></path><path d="M533.6 622.7v173.8h64.8c11.9 0 21.6 9.7 21.6 21.6s-9.7 21.6-21.6 21.6H425.6c-11.9 0-21.6-9.7-21.6-21.6s9.7-21.6 21.6-21.6h64.8V622.7c-110.3-11.1-194.3-104-194.3-214.8 0-57.8 14.4-115.3 43.2-172.7h345.5c28.8 43.4 43.2 101 43.2 172.7-0.1 110.9-84.1 203.7-194.4 214.8z" fill="#FFFFFF" p-id="5127"></path><path d="M685.3 365.8c-14.2-8.2-39.3-16-81.9-12.3-99.7 8.7-101.9 43.4-169.3 50.3-36.2 3.7-75.8-8.5-96.9-16.5-0.5 6.9-0.8 13.9-0.8 20.8 0 90.2 68.3 165.7 158 174.7h35.1c89.7-9 158-84.5 158-174.7 0.1-14.9-0.7-29-2.2-42.3z" fill="#D12E18" p-id="5128"></path><path d="M564.3 537.5c-3.9 0-7.6-2.3-9.2-6.1-2.2-5.1 0.2-11 5.3-13.1 34.4-14.7 60.2-43.5 70.7-79.1 1.6-5.3 7.1-8.3 12.4-6.8 5.3 1.6 8.3 7.1 6.8 12.4-12.2 41.4-42.1 74.8-82.1 91.9-1.3 0.5-2.6 0.8-3.9 0.8z" fill="#FFFFFF" p-id="5129"></path></svg>