<?xml version="1.0" standalone="no"?><!DOCTYPE svg PUBLIC "-//W3C//DTD SVG 1.1//EN" "http://www.w3.org/Graphics/SVG/1.1/DTD/svg11.dtd"><svg t="1596345337154" class="icon" viewBox="0 0 1024 1024" version="1.1" xmlns="http://www.w3.org/2000/svg" p-id="1975" xmlns:xlink="http://www.w3.org/1999/xlink" width="200" height="200"><defs><style type="text/css"></style></defs><path d="M512 558.933333c-128 0-234.666667-106.666667-234.666667-234.666666S384 89.6 512 89.6s234.666667 106.666667 234.666667 234.666667c0 132.266667-106.666667 234.666667-234.666667 234.666666z m0-409.6c-98.133333 0-174.933333 81.066667-174.933333 174.933334s81.066667 174.933333 174.933333 174.933333 174.933333-81.066667 174.933333-174.933333-76.8-174.933333-174.933333-174.933334z" fill="#6A3906" p-id="1976"></path><path d="M512 516.266667c-89.6 0-166.4-72.533333-166.4-166.4S418.133333 183.466667 512 183.466667s166.4 72.533333 166.4 166.4-76.8 166.4-166.4 166.4" fill="#F5CB2B" p-id="1977" data-spm-anchor-id="a313x.7781069.0.i8" class="selected"></path><path d="M469.333333 366.933333c-17.066667 0-25.6-8.533333-25.6-21.333333v-29.866667c0-12.8 8.533333-21.333333 21.333334-21.333333h4.266666c12.8 0 21.333333 8.533333 21.333334 21.333333V341.333333c4.266667 17.066667-8.533333 25.6-21.333334 25.6zM563.2 366.933333c-17.066667 0-25.6-8.533333-25.6-21.333333v-29.866667c0-12.8 8.533333-21.333333 21.333333-21.333333h4.266667c12.8 0 21.333333 8.533333 21.333333 21.333333V341.333333c0 17.066667-8.533333 25.6-21.333333 25.6zM780.8 930.133333H243.2c-85.333333 0-157.866667-72.533333-157.866667-157.866666s72.533333-157.866667 157.866667-157.866667h537.6c85.333333 0 157.866667 72.533333 157.866667 157.866667 0 89.6-72.533333 157.866667-157.866667 157.866666z m-537.6-256c-55.466667 0-98.133333 42.666667-98.133333 98.133334 0 55.466667 42.666667 98.133333 98.133333 98.133333h537.6c55.466667 0 98.133333-42.666667 98.133333-98.133333 0-55.466667-42.666667-98.133333-98.133333-98.133334H243.2z" fill="#6A3906" p-id="1978"></path></svg>